<svg width="812" height="430" viewBox="0 0 812 430" fill="none" xmlns="http://www.w3.org/2000/svg">
<path d="M275.867 301.72V342.256H264.357V304.657C264.357 295.324 258.991 289.823 251.313 289.823C244.917 289.823 239.803 292.759 235.838 297.754C235.973 299.037 236.091 300.319 236.091 301.72V342.256H224.716V304.657C224.716 295.324 219.603 289.823 211.925 289.823C205.411 289.823 200.297 293.012 196.332 298.008V342.256H184.822V280.879H196.078V286.751C200.297 282.414 206.44 278.82 214.625 278.82C221.662 278.82 228.058 281.638 231.889 287.258C235.348 283.933 242.115 278.82 253.118 278.82C264.881 278.837 275.867 286.768 275.867 301.72Z" fill="#212121"/>
<path d="M291.19 322.697C291.19 310.04 302.311 302.75 314.849 302.75C321.752 302.75 328.283 304.42 332.248 306.58V300.066C332.248 294.059 327.641 289.063 318.191 289.063C309.247 289.063 300.421 292.506 294.784 296.101V284.456C301.433 281.132 308.977 278.837 318.191 278.837C336.484 278.837 343.758 289.316 343.758 301.349V342.272H332.636V337.277C328.924 340.855 322.663 344.179 314.866 344.179C301.045 344.179 291.19 336.383 291.19 322.697ZM332.248 328.198V316.942C329.953 315.153 323.929 312.335 316.908 312.335C309.112 312.335 303.222 316.048 303.222 322.697C303.222 329.852 309.112 334.341 316.908 334.341C324.182 334.324 329.936 330.493 332.248 328.198Z" fill="#212121"/>
<path d="M361.629 280.879H372.885V291.493C376.074 283.309 383.618 278.837 391.684 278.837C393.608 278.837 395.009 279.09 395.903 279.225V292.017C394.115 291.763 392.073 291.628 390.402 291.628C380.31 291.628 374.809 298.277 373.138 304.167V342.272H361.629V280.879Z" fill="#212121"/>
<path d="M451.137 342.256L430.684 312.976L421.487 321.414V342.256H409.978V249.557H421.487V306.715L449.112 280.896H465.347L439.392 304.927L465.853 342.256H451.137Z" fill="#212121"/>
<path d="M469.667 311.305C469.667 291.612 483.606 278.837 499.841 278.837C518.893 278.837 529.896 292.641 529.896 311.947C529.896 313.482 529.761 315.271 529.643 316.031H482.071C482.577 326.257 490.897 333.548 501.258 333.548C511.232 333.548 518.64 330.729 526.96 324.215V335.59C521.712 339.673 513.797 344.162 501.258 344.162C484.113 344.179 469.667 333.058 469.667 311.305ZM517.358 306.074C517.104 296.354 510.962 289.451 499.841 289.451C489.749 289.451 482.965 297.248 482.459 306.074H517.358Z" fill="#212121"/>
<path d="M548.679 327.169V291.105H537.558V280.879H549.455V262.72L560.205 256.325V280.879H575.157V291.105H560.205V325.38C560.205 330.999 563.276 333.818 569.402 333.818C571.444 333.818 573.756 333.43 575.157 332.923V342.897C574.127 343.285 570.044 344.179 565.943 344.179C555.446 344.179 548.679 338.29 548.679 327.169Z" fill="#212121"/>
<path d="M588.556 257.489C588.556 252.629 592.134 248.916 596.859 248.916C601.719 248.916 605.297 252.629 605.297 257.489C605.297 262.214 601.719 265.927 596.859 265.927C592.134 265.927 588.556 262.214 588.556 257.489ZM591.239 280.879H602.749V342.255H591.239V280.879Z" fill="#212121"/>
<path d="M623.202 280.879H634.458V286.751C638.677 282.414 644.82 278.82 653.004 278.82C664.767 278.82 676.141 286.751 676.141 301.703V342.239H664.632V304.64C664.632 295.307 657.983 289.806 650.304 289.806C643.773 289.806 638.66 292.995 634.711 297.991V342.239H623.202V280.879Z" fill="#212121"/>
<path d="M694.029 362.456V350.44C702.467 356.313 712.322 359.131 719.596 359.131C732.506 359.131 739.678 353.512 739.678 340.72V332.788C735.594 337.395 728.557 341.226 718.971 341.226C702.855 341.226 690.198 329.329 690.198 310.023C690.198 290.717 702.855 278.82 718.971 278.82C728.557 278.82 735.594 282.651 739.678 287.258V280.862H751.187V340.703C751.187 355.925 742.749 369.864 719.613 369.864C708.863 369.881 699.395 365.915 694.029 362.456ZM739.678 320.267V299.813C736.218 294.565 729.198 289.705 721.013 289.705C711.293 289.705 702.349 296.607 702.349 310.04C702.349 324.739 711.293 330.375 721.013 330.375C729.063 330.358 735.965 325.515 739.678 320.267Z" fill="#212121"/>
<path d="M751.221 150.311C757.178 108.578 722.988 70.6077 681.558 70.6077C638.88 70.6077 605.618 105.118 605.618 146.852C605.618 188.586 638.88 221.847 681.558 221.847C708.863 221.847 733.012 207.419 746.192 185.447L720.153 170.073C712.306 182.932 698.181 192.669 681.558 192.669C660.531 192.669 643.909 179.49 637.935 161.298L722.971 153.147L751.221 150.311ZM637.31 135.242C642.339 115.48 659.586 100.089 681.558 100.089C701.016 100.089 717.959 111.379 722.043 127.394L637.31 135.242Z" fill="#212121"/>
<path d="M457.196 72.8016V101.44H553.32L461.263 179.49C455.93 183.574 453.112 189.531 453.112 196.753C453.112 209.309 463.153 219.654 476.012 219.654H589.299C589.299 201.141 589.299 192.265 589.299 191.016H492.483L584.287 113.286C589.315 109.202 592.437 102.621 592.437 95.3982C592.437 83.4671 582.076 72.8016 569.841 72.8016H457.196Z" fill="#212121"/>
<path d="M440.877 150.311C446.834 108.578 412.644 70.6077 371.214 70.6077C328.536 70.6077 295.274 105.118 295.274 146.852C295.274 188.586 328.536 221.847 371.214 221.847C398.519 221.847 422.668 207.419 435.848 185.447L409.809 170.073C401.962 182.932 387.837 192.669 371.214 192.669C350.187 192.669 333.565 179.49 327.591 161.298L412.627 153.147L440.877 150.311ZM326.983 135.242C332.012 115.48 349.259 100.089 371.231 100.089C390.689 100.089 407.632 111.379 411.716 127.394L326.983 135.242Z" fill="#212121"/>
<path d="M219.029 219.654V102.604H286.802V72.8016H219.029C200.196 72.8016 184.822 87.551 184.822 106.064V219.654H219.029Z" fill="#212121"/>
<path d="M0 29.8025V0H221.223V29.8025H127.411V219.654H92.58V29.8025H0Z" fill="#212121"/>
<path d="M741.652 429.621H776.804C795.637 429.621 811.011 414.872 811.011 396.359V360.279H781.209V399.819H741.652V429.621Z" fill="#212121"/>
</svg>
